inDegrees=no
num_controls=7
num_derivatives=13
num_iterations=144
num_multipliers=7
num_parameters=0
num_slacks=7
num_states=26
objective=5.975698
objective_accelerations=0.440393
objective_balance=0.048251
objective_effort=0.450785
objective_height=4.986139
objective_ligament=0.050129
solver_duration=1300.562232
status=Solve_Succeeded
success=true
DataType=double
version=3
OpenSimVersion=4.4-2022-07-23-0e9fedc
endheader
time	/jointset/ground_pelvis/pelvis_tilt/value	/jointset/ground_pelvis/pelvis_tx/value	/jointset/ground_pelvis/pelvis_ty/value	/jointset/hip_r/hip_flexion_r/value	/jointset/hip_r/hip_adduction_r/value	/jointset/hip_r/hip_rotation_r/value	/jointset/back/lumbar_extension/value	/jointset/patellofemoral_r/patellar_flexion_r/value	/jointset/knee_r/knee_flexion_r/value	/jointset/knee_r/knee_adduction_r/value	/jointset/knee_r/knee_rotation_r/value	/jointset/ankle_r/ankle_angle_r/value	/jointset/subtalar_r/subtalar_angle_r/value	/jointset/ground_pelvis/pelvis_tilt/speed	/jointset/ground_pelvis/pelvis_tx/speed	/jointset/ground_pelvis/pelvis_ty/speed	/jointset/hip_r/hip_flexion_r/speed	/jointset/hip_r/hip_adduction_r/speed	/jointset/hip_r/hip_rotation_r/speed	/jointset/back/lumbar_extension/speed	/jointset/patellofemoral_r/patellar_flexion_r/speed	/jointset/knee_r/knee_flexion_r/speed	/jointset/knee_r/knee_adduction_r/speed	/jointset/knee_r/knee_rotation_r/speed	/jointset/ankle_r/ankle_angle_r/speed	/jointset/subtalar_r/subtalar_angle_r/speed	/forceset/tau_hip_flexion_r	/forceset/tau_hip_adduction_r	/forceset/tau_hip_rotation_r	/forceset/tau_knee_flexion_r	/forceset/tau_ankle_angle_r	/forceset/tau_subtalar_angle_r	/forceset/tau_lumbar_extension	lambda_cid13_p0	lambda_cid14_p0	lambda_cid14_p1	lambda_cid14_p2	lambda_cid14_p3	lambda_cid14_p4	lambda_cid14_p5	/jointset/ground_pelvis/pelvis_tilt/accel	/jointset/ground_pelvis/pelvis_tx/accel	/jointset/ground_pelvis/pelvis_ty/accel	/jointset/hip_r/hip_flexion_r/accel	/jointset/hip_r/hip_adduction_r/accel	/jointset/hip_r/hip_rotation_r/accel	/jointset/back/lumbar_extension/accel	/jointset/patellofemoral_r/patellar_flexion_r/accel	/jointset/knee_r/knee_flexion_r/accel	/jointset/knee_r/knee_adduction_r/accel	/jointset/knee_r/knee_rotation_r/accel	/jointset/ankle_r/ankle_angle_r/accel	/jointset/subtalar_r/subtalar_angle_r/accel	gamma_cid13_p0	gamma_cid14_p0	gamma_cid14_p1	gamma_cid14_p2	gamma_cid14_p3	gamma_cid14_p4	gamma_cid14_p5
1	-0.2058962843733652	0.031642629675062	0.733095764910576	1.165079686395829	-0.2515875410764938	0.00317663037363664	-0.4362361733278193	1.206612831855935	1.206612831856305	0.05149289954795819	0.1745325774379989	0.4363064811802284	0.07592897671209912	-0.001649764749345149	0.005204466193060734	0.01463544383649384	-0.04061879553931595	0.001771274828396305	-0.01982887350466806	0.008817716818971236	-0.05082878394194101	-0.05082878394194029	-0.008166750460594733	-1.11407209051907e-05	-0.01006848673046731	4.722208199465984e-05	-0.2164799102378199	0.01622789764371357	0.02151877078826274	-0.4632768656356898	-0.03173368117878662	0.005002447789433175	0.2577141241806071	-1.654115818300531	-57.79550452967867	-7.407101192032028	1.024155848458965	16.95517842439844	-780.9911799351353	62.33661324570937	1.004423243668097	0.1017277828009186	1.383978469857632	-4.376189664125807	0.03332937472646246	-1.113513849088234	0.4495227594104356	-4.652115355884623	-4.652115355884605	0.122790337053994	0.001055426686036194	-1.492682611730973	-0.4279902842871911	-3.702858448722467e-10	-4.589997811397159e-09	-1.817009047140369e-09	-3.867699590824727e-09	7.879448494011745e-09	-5.386759914714984e-09	-4.642951599458021e-09
1.01	-0.2058636379684521	0.03169979745036483	0.7333111555638164	1.164455921394711	-0.2515680913659402	0.002922559114574864	-0.4361236100740054	1.205872070870304	1.205872070870254	0.05141713634130942	0.1745324768685646	0.4361311677849465	0.07590817524552726	0.008135882280579342	0.0062353615281536	0.02843986998884655	-0.08410332157728793	0.002119687506328273	-0.0309822007812927	0.01381423914597964	-0.09734064596536929	-0.09734064596537698	-0.006978047023286801	-8.903613267835687e-06	-0.02499971968462027	-0.00420702540762663	-0.2171808026936796	0.0164073948890744	0.02150843975410949	-0.4624373831515592	-0.03276013814392862	0.005128087312526188	0.2583742963678548	-1.675529199305203	-58.1317822164895	-7.399229512448199	1.00898110281077	17.11191127038548	-781.2566307815895	62.29759947402697	0.9591610604340416	0.1047126964717893	1.378250375521054	-4.329951706536144	0.03574922274782195	-1.115766946454962	0.5426127496303715	-4.653306420104827	-4.653306420106248	0.1180874940571189	-0.0001836309486225485	-1.494173295566011	-0.4240694361746025	-6.110811434440129e-10	-4.689150059830848e-09	2.700071962897367e-10	-9.143935223123912e-09	6.952061032699534e-09	-8.909430307432308e-09	-2.434148665943464e-09
1.02	-0.2057344299676834	0.03176746263653971	0.7336645056161004	1.163398237606617	-0.2515451271269382	0.002557049626860181	-0.4359575024408642	1.20466567430553	1.204665674305068	0.05135349559839841	0.1745324003734418	0.4358063761284615	0.07584484581308146	0.01766255442168019	0.007303948367469146	0.04222732364517401	-0.1274025529313969	0.00247418052112646	-0.04211651923814393	0.01952659268437681	-0.1439558997701139	-0.1439558997701304	-0.005742257706453413	-6.325855678697207e-06	-0.03996413897111608	-0.008458371092248979	-0.2178816951496204	0.01658689213440072	0.02149810872013808	-0.4615979006674335	-0.03378659510907214	0.005253726835556084	0.2590344685550298	-1.710920809122164	-58.47881165270653	-7.390090144372049	0.9900062970895633	17.28643796053847	-781.6951599739548	62.26759772143698	0.9526282659033517	0.1092660836454439	1.38058397065259	-4.339130727353189	0.03454544209968679	-1.109712085133566	0.592689001688175	-4.672793712147939	-4.672793712147985	0.1322075129591089	0.001123556676428068	-1.499319878199582	-0.4274099232874407	-9.852568019087223e-10	-5.784471871160092e-09	-7.788748061501117e-10	-1.341096266976398e-08	8.327292030420015e-09	-1.115881825130417e-08	-5.168175008616904e-09
1.03	-0.2055111771435828	0.03184605203869855	0.7341555794753525	1.16190848667867	-0.2515185809524235	0.002080331996978478	-0.4357307035480019	1.202992771900999	1.202992771900856	0.05130244542485284	0.1745323569466519	0.4353318788300901	0.07573907637252979	0.02694952533360095	0.008425215700654741	0.05597771907700409	-0.1705139593460801	0.002837013055927642	-0.0532192746800473	0.02595475134620749	-0.1906253301751488	-0.1906253301751639	-0.004460199855371063	-2.604221596646652e-06	-0.05493048701938234	-0.01268872483052197	-0.2182974532810827	0.01670273158174494	0.02148324012603241	-0.460558888374124	-0.03441169980436001	0.005325339234495717	0.2594745192623835	-1.7607297116095	-58.67026583798068	-7.376654222581394	0.9697516614443615	17.30914175932827	-781.6926057818904	62.20707355321765	0.9109588517282182	0.1152515572325086	1.37080526762848	-4.292094854989824	0.03744388921210934	-1.109400084847795	0.6861141171381508	-4.664129786181291	-4.664129786181176	0.1273423746363727	-4.412034261930828e-05	-1.494567871475613	-0.4198315539155239	-1.360793484453973e-09	-6.889958678029091e-09	-1.859755770282529e-09	-1.766769207369323e-08	9.726019134865332e-09	-1.339521351712658e-08	-7.952638384720863e-09
1.04	-0.2051962091407843	0.0319361930140042	0.7347838648765597	1.15998863183527	-0.2514883481065673	0.001492818250465896	-0.4354359761047792	1.200853152776115	1.200853152776297	0.05126444332047572	0.1745323426187764	0.4347078629305701	0.07559120670362898	0.03600559016119451	0.009614262996828764	0.06966963203614246	-0.2134233360193265	0.003211514792416089	-0.06427574256712477	0.03311230275635947	-0.237299243840185	-0.237299243840198	-0.00313264386613746	-5.060721837623463e-07	-0.06986785920106775	-0.01687841676152714	-0.2187132114125987	0.01681857102905541	0.02146837153211714	-0.4595198760808167	-0.03503680449965161	0.005396951633372674	0.2599145699696903	-1.825555533928941	-58.87249710324888	-7.361860917717405	0.9455751518740158	17.34906819108893	-781.8637909022679	62.15601908001182	0.9064470490379103	0.1228220762431087	1.368887476114254	-4.298724779065801	0.03687928243713753	-1.100454574168375	0.7385675513524329	-4.673690364148238	-4.673690364148164	0.1413071405893764	0.0007988597425753937	-1.493524704883462	-0.419277561833883	-1.685108630954879e-09	-7.7711800712188e-09	-3.394839895958099e-09	-2.228713190510466e-08	1.0710426587343e-08	-1.602115681229435e-08	-1.037373630086037e-08
1.05	-0.2047918009176416	0.03203855672693567	0.7355487177899815	1.157640769251721	-0.251454304143822	0.000794986065730164	-0.4350661621289832	1.198246854695265	1.19824685469533	0.05123994089171913	0.1745323571420859	0.4339345943802557	0.0754016601543441	0.04483833456912303	0.01086912195750812	0.08328494765936037	-0.2561049202990698	0.003600606884471018	-0.07527954663055826	0.04096191669677605	-0.2839526133246125	-0.2839526133246291	-0.001759942498382977	2.544623022799381e-06	-0.08478327783277323	-0.02102145155224083	-0.2187858729034826	0.01681935928373862	0.02144898890883577	-0.4582456664495114	-0.03545631224626141	0.005473752970406065	0.2600497476182372	-1.906138761264885	-58.98194361401691	-7.319089109427155	0.9061104091730507	17.35456357443521	-781.5799786937736	62.13294906162744	0.8660301792587174	0.1284165073042987	1.355449398604043	-4.246236649976014	0.0404201285620412	-1.098674863396103	0.8248719594878611	-4.659995985083587	-4.65999598508431	0.1364374908109176	-7.773079930819957e-05	-1.490165104824519	-0.4104040706686023	-2.007823104454401e-09	-8.645393170231031e-09	-4.94411787043189e-09	-2.691790643737492e-08	1.168188655069667e-08	-1.865927348337917e-08	-1.2783479046376e-08
1.06	-0.204300196841902	0.03215378876973819	0.7364492430182721	1.154867418545855	-0.2514162700689764	-1.255046781884778e-05	-0.4346145092849619	1.19517425577067	1.195174255770623	0.05122940264779686	0.1745323749913181	0.4330122487111234	0.07517096573055367	0.05344476068059044	0.01218792897104146	0.09680409500981373	-0.298520960480714	0.004009537215436102	-0.08621661233261345	0.04948007640127217	-0.3305594125887834	-0.3305594125888043	-0.0003398068929235287	1.591098685681242e-07	-0.09968328296489641	-0.02510799166209441	-0.2188585343944032	0.01682014753839139	0.02142960628573275	-0.4569714568182071	-0.03587581999287538	0.005550554307382678	0.2601849252667526	-2.003373460633317	-59.10213630491837	-7.274863526921566	0.8626045091730052	17.37628475336203	-781.4696595178953	62.11986853759316	0.8611833897456989	0.1356116868138803	1.349653821561351	-4.245615959445918	0.04084693021916905	-1.087106901892694	0.8722767041683466	-4.664376320096967	-4.664376320097033	0.1507939881303856	-0.0002883819296160046	-1.49044200496706	-0.4079786256618637	-2.313754334097341e-09	-9.682154242301831e-09	-9.420322417465854e-09	-3.163280506020278e-08	1.314481853846897e-08	-2.093612428693477e-08	-1.789514701175082e-08
1.07	-0.2037236083516677	0.03228253800031676	0.7374844178893872	1.151671281757052	-0.2513740485588113	-0.0009291189624566715	-0.4340744385122053	1.191635929648559	1.191635929648553	0.05123329993125728	0.1745323790091531	0.4319409926216656	0.07489970144452891	0.0618374495328201	0.01357348619906122	0.1102083656554503	-0.3406540258021073	0.004439174281396681	-0.09708200795499035	0.05863860702286579	-0.3770868697658081	-0.3770868697658255	0.001127775959199379	-7.024419674665929e-07	-0.1145637672921405	-0.02913210894401842	-0.2186045067204336	0.01679847864382182	0.02140381783828348	-0.4554632301590064	-0.03603458774789407	0.005570818530839906	0.2600327602847174	-2.118292649823805	-59.11413044172632	-7.238333509310156	0.822708132998482	17.33603432410873	-780.9022363774636	62.05487039066186	0.8229883800140875	0.1417660467130898	1.332431981734011	-4.189296777530517	0.04467855123791409	-1.083998503397974	0.9533205721147854	-4.644088578337671	-4.644088578337227	0.1460176177840442	-0.0001955591774946749	-1.486226960812834	-0.3977212293748083	-2.618792838003228e-09	-1.072756148315234e-08	-1.405221454814666e-08	-3.63521783686986e-08	1.463389265519971e-08	-2.319375882094095e-08	-2.315053440371393e-08
1.08	-0.2030641576235011	0.03242549046435843	0.7386529591260933	1.148055385323216	-0.2513273993867101	-0.001953889935503211	-0.4334396465670403	1.187632897322307	1.18763289732235	0.05125212848001201	0.1745323323080181	0.4307210566260947	0.07458857739569889	0.07001720826715363	0.01502857566366298	0.1234773681279464	-0.3824728894852841	0.0048950696055097	-0.1078571080168906	0.06842431088287196	-0.423500653416131	-0.4235006534161446	0.002646446172562249	-9.984688479855718e-06	-0.129419264187775	-0.03307994422262849	-0.2183504790465027	0.01677680974921922	0.02137802939104305	-0.4539550034998074	-0.03619335550291806	0.005591082754235026	0.2598805953026491	-2.252074259623187	-59.136781406495	-7.200114972843055	0.7784829175563266	17.31096476046056	-780.5071303831145	62.00084698316303	0.8185973661665006	0.1495181341302535	1.322600186933242	-4.182775631802631	0.04609858184964673	-1.069047789797353	0.9977113518508752	-4.641641614756643	-4.641641614756665	0.1610114603783979	-0.001972520864897267	-1.485444518645193	-0.3927222249990924	-2.895930762900069e-09	-1.185603074961848e-08	-2.192773908974711e-08	-4.168137985403546e-08	1.652660993872959e-08	-2.529160440003212e-08	-3.106425066811946e-08
